<svg id="Layer_1" data-name="Layer 1" xmlns="http://www.w3.org/2000/svg" viewBox="0 0 111.76 120.98"><defs><style>.cls-1{fill:#5ce1e6;}</style></defs><title>Logo icon</title><path class="cls-1" d="M111.76,121H82.28A38.93,38.93,0,0,0,58,110.74c-.82,0-1.65-.08-2.49-.08A39.32,39.32,0,0,0,31.14,119c-.82.64-1.61,1.32-2.37,2H0a56.12,56.12,0,0,1,4.27-7.2,58.21,58.21,0,0,1,6.79-8.09,59.49,59.49,0,0,1,5.52-4.87,62.08,62.08,0,0,1,14.56-8.44,63.11,63.11,0,0,1,11.43-3.5,65.21,65.21,0,0,1,13.14-1.33c.77,0,1.54,0,2.3,0a64.24,64.24,0,0,1,16,2.56l-16-36-10,22.41a76.47,76.47,0,0,0-16.91,3.61c-.49.15-1,.32-1.46.5a73.23,73.23,0,0,0-9.29,4L58,0,84.88,60.49h0Z"/></svg>