<?xml version="1.0" encoding="utf-8"?>
<!-- Generator: Adobe Illustrator 23.0.2, SVG Export Plug-In . SVG Version: 6.00 Build 0)  -->
<svg version="1.1" id="Layer_1" xmlns="http://www.w3.org/2000/svg" xmlns:xlink="http://www.w3.org/1999/xlink" x="0px" y="0px"
	 viewBox="0 0 670.4 126.4" style="enable-background:new 0 0 670.4 126.4;" xml:space="preserve">
<style type="text/css">
	.st0{fill:#FFFFFF;}
	.st1{display:none;fill:#FFFFFF;}
</style>
<title>logo white</title>
<path class="st0" d="M93.1,100.8H68.5c-5.5-5.1-12.7-8.1-20.2-8.5c-0.7,0-1.4-0.1-2.1-0.1c-7.4,0-14.5,2.4-20.3,6.9
	c-0.7,0.5-1.3,1.1-2,1.7H0c1-2.1,2.2-4.1,3.6-6c1.7-2.4,3.6-4.7,5.7-6.8c1.4-1.4,3-2.8,4.6-4c3.7-2.9,7.8-5.2,12.1-7
	c3.1-1.3,6.3-2.3,9.5-3c3.6-0.7,7.3-1.1,10.9-1.1c0.7,0,1.3,0,1.9,0c4.5,0.1,9,0.9,13.3,2.1L48.3,45L40,63.7
	c-4.8,0.5-9.5,1.5-14.1,3c-0.4,0.1-0.8,0.3-1.2,0.4c-2.6,0.9-5.2,2.1-7.7,3.4L48.3,0l22.4,50.4l0,0L93.1,100.8z"/>
<path class="st0" d="M328.7,100.8h-24.6c-5.5-5.1-12.7-8.1-20.2-8.5c-0.7,0-1.4-0.1-2.1-0.1c-7.4,0-14.5,2.4-20.3,6.9
	c-0.7,0.5-1.3,1.1-2,1.7h-24c1-2.1,2.2-4.1,3.5-6c2.9-4.1,6.4-7.7,10.3-10.8c6.3-4.9,13.7-8.4,21.6-10c3.6-0.7,7.3-1.1,11-1.1
	c0.6,0,1.3,0,1.9,0c4.5,0.1,9,0.9,13.3,2.1l-13.3-30l-8.3,18.7c-4.8,0.5-9.5,1.5-14.1,3c-0.4,0.1-0.8,0.3-1.2,0.4
	c-2.7,0.9-5.2,2.1-7.7,3.4L283.9,0l22.4,50.4l0,0L328.7,100.8z"/>
<path class="st0" d="M150,46.7c4,2.5,7.2,6,9.3,10.2c2.4,4.9,3.5,10.2,3.4,15.6c0.2,5.3-1.1,10.6-3.7,15.3
	c-2.4,4.2-6.1,7.7-10.5,9.8c-4.8,2.3-10,3.5-15.3,3.4c-3.1,0-6.3-0.6-9.2-1.7c-2.8-1-5.4-2.6-7.4-4.7v30.8H99.4V44.6h8.2
	c3.8,0,7.2,2.7,8.1,6.4l0,0c6.6-5.2,13.5-7.9,20.9-7.9C141.3,43,146,44.3,150,46.7z M140.6,83.4c3-2.7,4.7-6.6,4.6-10.6
	c0.1-4-1.3-8-4.1-10.9c-2.6-2.8-6.3-4.3-10.1-4.3c-3-0.1-5.9,0.6-8.6,2c-2.4,1.5-4.4,3.6-5.7,6.1V79c0.9,2.6,2.6,4.8,4.9,6.3
	c2.4,1.6,5.3,2.4,8.2,2.3C133.8,87.7,137.7,86.2,140.6,83.4L140.6,83.4z"/>
<path class="st0" d="M222.2,46.7c4,2.5,7.2,6,9.3,10.2c2.4,4.9,3.5,10.2,3.4,15.6c0.1,5.4-1.2,10.6-3.8,15.3
	c-2.4,4.2-6.1,7.7-10.5,9.8c-4.8,2.3-10,3.5-15.3,3.4c-3.1,0-6.2-0.6-9.2-1.7c-2.8-1-5.4-2.6-7.4-4.7v30.8h-17.1V44.6h8.2
	c3.8,0,7.2,2.7,8.1,6.4l0,0c6.6-5.2,13.5-7.9,20.9-7.9C213.5,43,218.2,44.3,222.2,46.7z M212.9,83.4c3-2.7,4.7-6.6,4.6-10.6
	c0.2-4-1.3-8-4.1-10.9c-2.6-2.8-6.3-4.3-10.2-4.3c-3-0.1-5.9,0.6-8.6,2c-2.4,1.5-4.4,3.6-5.7,6.1V79c0.9,2.6,2.6,4.8,4.9,6.3
	c2.4,1.6,5.3,2.4,8.2,2.3C206,87.7,209.9,86.2,212.9,83.4z"/>
<path class="st1" d="M200,98.4c-3.7-1.4-6.9-3.7-9.6-6.5l7.1-9.5c4.8,4.4,9.2,6.7,13.4,6.7c1.8,0.1,3.7-0.2,5.4-1
	c1.2-0.5,2-1.8,2-3.1c0-1.6-0.9-3.1-2.3-3.8c-1.7-0.9-3.4-1.6-5.2-2.1c-1.9-0.6-3.2-0.9-3.9-1.1c-4.7-1.5-8.2-3.7-10.5-6.6
	c-2.3-2.8-3.5-6.4-3.4-10c0-6.5,3.6-12.4,9.4-15.3c3.7-1.9,7.8-2.8,11.9-2.6c3.8-0.1,7.6,0.4,11.3,1.3c3.2,1,6.3,2.5,9,4.4
	l-6.5,10.1c-1.7-1.3-3.5-2.4-5.5-3.2c-1.7-0.8-3.6-1.2-5.5-1.3c-1.7-0.1-3.4,0.4-4.8,1.2c-1.1,0.6-1.8,1.7-1.8,3
	c-0.2,1.6,0.7,3.2,2.1,3.9c2.3,1.1,4.6,2,7.1,2.7l1.5,0.5c0.5,0.2,1.1,0.3,1.7,0.5c8.5,2.8,12.7,7.9,12.7,15.3
	c0,3.3-0.9,6.6-2.6,9.4c-1.9,3-4.6,5.5-7.8,7c-4,1.9-8.3,2.8-12.7,2.7C208.2,100.8,204,100,200,98.4z"/>
<path class="st0" d="M418.9,48.5c3.2,3.1,5,7.3,5,11.7v40.4h-17.1V67.3c0-2.1-0.5-4.2-1.4-6.1c-0.7-1.4-2.2-2.1-4.3-2.3
	c-4,0-7.2,2-9.4,5.8c-2.3,4.2-3.5,8.9-3.4,13.7v22h-17.2V67.3c0-2.1-0.5-4.2-1.5-6.1c-0.8-1.4-2.3-2.1-4.5-2.3c-3.9,0-6.9,2-9.1,5.8
	c-2.3,4.1-3.4,8.8-3.3,13.5v22.3h-17.2V46.8h7c4.9,0,9.1,3.6,9.8,8.5l0,0c4.4-7.5,10.8-11.2,19.5-11.2c3.8-0.2,7.5,0.8,10.8,2.7
	c2.9,1.8,4.9,4.6,5.9,7.8c2.2-3.1,5-5.7,8.2-7.6c2.9-1.8,6.3-2.8,9.8-2.8C411.6,44,415.8,45.5,418.9,48.5z"/>
<path class="st0" d="M482.8,47.6c4,2.5,7.2,6,9.3,10.2c2.4,4.9,3.5,10.2,3.4,15.6c0.1,5.4-1.2,10.7-3.8,15.3
	c-2.4,4.2-6.1,7.7-10.5,9.8c-4.8,2.3-10,3.5-15.3,3.4c-3.1,0-6.2-0.6-9.2-1.7c-2.8-1-5.4-2.6-7.5-4.7v30.8h-17.2V45.5h8.2
	c3.8,0,7.1,2.7,8,6.4l0,0c6.6-5.2,13.5-7.9,20.9-7.9C474.1,44,478.7,45.2,482.8,47.6z M473.5,84.3c3-2.7,4.6-6.6,4.5-10.6
	c0.2-4-1.3-8-4.1-10.9c-2.6-2.8-6.3-4.3-10.2-4.3c-3-0.1-5.9,0.6-8.6,2c-2.4,1.5-4.4,3.6-5.7,6.1v13.2c0.9,2.6,2.6,4.8,4.9,6.3
	c2.4,1.6,5.3,2.4,8.2,2.3C466.6,88.6,470.5,87.1,473.5,84.3z"/>
<path class="st0" d="M522.9,20.6v79.9h-17.2V3.4l0,0C515.2,3.4,522.9,11.1,522.9,20.6C522.9,20.6,522.9,20.6,522.9,20.6z"/>
<path class="st0" d="M550.6,46.8v53.8h-17.2V64C533.3,54.5,541.1,46.8,550.6,46.8z M551.7,28.3c0,5.2-4.2,9.4-9.4,9.4
	c-5.2,0-9.4-4.2-9.4-9.4s4.2-9.4,9.4-9.4l0,0C547.5,18.9,551.7,23.1,551.7,28.3z"/>
<path class="st0" d="M568.2,61.8h-9.1V46.5h9.1V27.8c0-7.2,2.1-13,6.2-17.4c4.1-4.4,10-6.6,17.6-6.6c2.7,0,5.3,0.4,7.9,1.1
	c2.6,0.7,5.1,1.8,7.3,3.3l-7.3,12.4c-1.5-1.8-3.7-2.8-6-2.7c-2.3-0.1-4.6,0.8-6.1,2.6c-1.5,1.7-2.3,4.3-2.3,7.8v18.2h16.3v15.3
	h-16.3v38.8h-17.2V61.8z"/>
<path class="st0" d="M670.4,46.8l-34.7,79.7H619l13-28.7l-24.9-51h19.3l14.1,31.8l14.3-31.8H670.4z"/>
</svg>
